<svg width="313" height="54" viewBox="0 0 313 54" fill="none" xmlns="http://www.w3.org/2000/svg">
<path d="M21.016 53.64C17.048 53.64 13.4853 52.872 10.328 51.336C7.21333 49.8 4.76 47.6453 2.968 44.872C1.21867 42.0987 0.344 38.9627 0.344 35.464C0.344 31.9653 1.21867 28.8507 2.968 26.12C4.76 23.3467 7.21333 21.192 10.328 19.656C13.4853 18.12 17.048 17.352 21.016 17.352C25.2827 17.352 28.9307 18.2693 31.96 20.104C34.9893 21.9387 37.08 24.4773 38.232 27.72L27.032 33.224C25.6667 30.152 23.64 28.616 20.952 28.616C19.2453 28.616 17.816 29.2133 16.664 30.408C15.5547 31.6027 15 33.288 15 35.464C15 37.6827 15.5547 39.3893 16.664 40.584C17.816 41.7787 19.2453 42.376 20.952 42.376C23.64 42.376 25.6667 40.84 27.032 37.768L38.232 43.272C37.08 46.5147 34.9893 49.0533 31.96 50.888C28.9307 52.7227 25.2827 53.64 21.016 53.64ZM65.895 17.352C70.2043 17.352 73.6603 18.6533 76.263 21.256C78.9083 23.8587 80.231 27.784 80.231 33.032V53H65.767V35.528C65.767 31.5173 64.3377 29.512 61.479 29.512C59.8577 29.512 58.535 30.088 57.511 31.24C56.5297 32.3493 56.039 34.12 56.039 36.552V53H41.575V5.512H56.039V20.808C58.727 18.504 62.0123 17.352 65.895 17.352ZM86.5125 17.992H100.977V53H86.5125V17.992ZM93.7445 15.176C91.1418 15.176 89.0298 14.4933 87.4085 13.128C85.8298 11.72 85.0405 9.94933 85.0405 7.816C85.0405 5.68266 85.8298 3.93333 87.4085 2.568C89.0298 1.16 91.1418 0.455997 93.7445 0.455997C96.3898 0.455997 98.5018 1.11733 100.081 2.44C101.659 3.76266 102.449 5.46933 102.449 7.56C102.449 9.77866 101.659 11.6133 100.081 13.064C98.5018 14.472 96.3898 15.176 93.7445 15.176ZM133.18 51.784C131.004 53.0213 128.038 53.64 124.284 53.64C119.377 53.64 115.601 52.4667 112.956 50.12C110.31 47.7307 108.988 44.168 108.988 39.432V30.472H104.188V19.912H108.988V10.12H123.452V19.912H130.62V30.472H123.452V39.304C123.452 40.3707 123.729 41.2027 124.284 41.8C124.838 42.3973 125.564 42.696 126.46 42.696C127.697 42.696 128.785 42.376 129.724 41.736L133.18 51.784ZM135.88 29.064H155.08V39.944H135.88V29.064ZM180.579 53.64C176.611 53.64 173.048 52.872 169.891 51.336C166.776 49.8 164.323 47.6453 162.531 44.872C160.781 42.0987 159.907 38.9627 159.907 35.464C159.907 31.9653 160.781 28.8507 162.531 26.12C164.323 23.3467 166.776 21.192 169.891 19.656C173.048 18.12 176.611 17.352 180.579 17.352C184.845 17.352 188.493 18.2693 191.523 20.104C194.552 21.9387 196.643 24.4773 197.795 27.72L186.595 33.224C185.229 30.152 183.203 28.616 180.515 28.616C178.808 28.616 177.379 29.2133 176.227 30.408C175.117 31.6027 174.562 33.288 174.562 35.464C174.562 37.6827 175.117 39.3893 176.227 40.584C177.379 41.7787 178.808 42.376 180.515 42.376C183.203 42.376 185.229 40.84 186.595 37.768L197.795 43.272C196.643 46.5147 194.552 49.0533 191.523 50.888C188.493 52.7227 184.845 53.64 180.579 53.64ZM225.458 17.352C229.767 17.352 233.223 18.6533 235.826 21.256C238.471 23.8587 239.794 27.784 239.794 33.032V53H225.33V35.528C225.33 31.5173 223.9 29.512 221.042 29.512C219.42 29.512 218.098 30.088 217.074 31.24C216.092 32.3493 215.602 34.12 215.602 36.552V53H201.138V5.512H215.602V20.808C218.29 18.504 221.575 17.352 225.458 17.352ZM261.755 17.352C267.899 17.352 272.592 18.7387 275.835 21.512C279.078 24.2427 280.699 28.4667 280.699 34.184V53H267.259V48.392C265.595 51.8907 262.288 53.64 257.339 53.64C254.566 53.64 252.198 53.1707 250.235 52.232C248.315 51.2507 246.843 49.9493 245.819 48.328C244.838 46.664 244.347 44.808 244.347 42.76C244.347 39.304 245.67 36.68 248.315 34.888C250.96 33.096 254.971 32.2 260.347 32.2H266.171C265.702 29.4693 263.504 28.104 259.579 28.104C258 28.104 256.4 28.36 254.779 28.872C253.158 29.3413 251.771 30.0027 250.619 30.856L246.011 21.32C248.016 20.0827 250.427 19.1227 253.243 18.44C256.102 17.7147 258.939 17.352 261.755 17.352ZM261.691 44.936C262.715 44.936 263.632 44.6587 264.443 44.104C265.254 43.5493 265.851 42.7173 266.235 41.608V39.176H262.651C259.707 39.176 258.235 40.1573 258.235 42.12C258.235 42.9307 258.534 43.6133 259.131 44.168C259.771 44.68 260.624 44.936 261.691 44.936ZM312.742 51.784C310.566 53.0213 307.601 53.64 303.846 53.64C298.939 53.64 295.163 52.4667 292.518 50.12C289.873 47.7307 288.55 44.168 288.55 39.432V30.472H283.75V19.912H288.55V10.12H303.014V19.912H310.182V30.472H303.014V39.304C303.014 40.3707 303.291 41.2027 303.846 41.8C304.401 42.3973 305.126 42.696 306.022 42.696C307.259 42.696 308.347 42.376 309.286 41.736L312.742 51.784Z" fill="#663399"/>
</svg>
